<svg id="Layer_1" enable-background="new 0 0 512 512" viewBox="0 0 512 512" xmlns="http://www.w3.org/2000/svg"><g id="Layer_2_00000061460698954129649200000005681004580906526911_"><g id="Layer_1_copy_7"><g id="_85"><path d="m366.9 512c-12.4 0-24.3-4.9-33.1-13.7l-133.8-133.8-21.7 46c-10.5 22.4-37.3 32.1-59.7 21.5-12-5.6-20.9-16.3-24.3-29.1l-92.7-346.4c-3.7-13.4-.8-27.8 7.7-38.9 11-14.4 29.7-20.8 47.2-16l346.5 92.8c23.9 6.4 38.1 31.1 31.7 55-3.4 12.7-12.3 23.3-24.2 29l-46 21.6 133.8 133.8c18.2 18.3 18.2 47.9 0 66.2l-98.3 98.3c-8.7 8.8-20.7 13.7-33.1 13.7z"/><path d="m54.5 9.3 346.5 92.8c33.2 8.9 37.3 54.3 6.2 69l-56.3 26.5 141.8 141.8c15.2 15.2 15.2 39.7 0 54.9l-98.3 98.3c-15.1 15.2-39.7 15.2-54.9 0l-141.8-141.8-26.5 56.3c-14.6 31.1-60.1 27-69-6.2l-92.9-346.4c-7.3-27.5 17.7-52.5 45.2-45.2z" fill="#1dd882"/></g></g></g></svg>